<mxfile host="app.diagrams.net" modified="2020-11-13T13:24:08.085Z" agent="5.0 (Windows NT 10.0; Win64; x64) AppleWebKit/537.36 (KHTML, like Gecko) Chrome/86.0.4240.193 Safari/537.36" etag="iNHL78hQLDNVxssautSg" version="13.9.7" type="github">
  <diagram id="C5RBs43oDa-KdzZeNtuy" name="Page-1">
    <mxGraphModel dx="1209" dy="2297" grid="1" gridSize="10" guides="1" tooltips="1" connect="1" arrows="1" fold="1" page="1" pageScale="1" pageWidth="1169" pageHeight="1654" math="0" shadow="0">
      <root>
        <mxCell id="WIyWlLk6GJQsqaUBKTNV-0" />
        <mxCell id="WIyWlLk6GJQsqaUBKTNV-1" parent="WIyWlLk6GJQsqaUBKTNV-0" />
        <mxCell id="AeC5mfnTEmSeIsK8OsLa-0" value="setupTimer()" style="rounded=1;whiteSpace=wrap;html=1;" vertex="1" parent="WIyWlLk6GJQsqaUBKTNV-1">
          <mxGeometry x="1020" width="120" height="60" as="geometry" />
        </mxCell>
        <mxCell id="AeC5mfnTEmSeIsK8OsLa-89" value="" style="edgeStyle=orthogonalEdgeStyle;shape=link;rounded=0;orthogonalLoop=1;jettySize=auto;html=1;" edge="1" parent="WIyWlLk6GJQsqaUBKTNV-1" source="AeC5mfnTEmSeIsK8OsLa-1" target="AeC5mfnTEmSeIsK8OsLa-87">
          <mxGeometry relative="1" as="geometry" />
        </mxCell>
        <mxCell id="AeC5mfnTEmSeIsK8OsLa-1" value="Timer0&lt;br&gt;millis(300)&lt;br&gt;millis(500)" style="rounded=1;whiteSpace=wrap;html=1;" vertex="1" parent="WIyWlLk6GJQsqaUBKTNV-1">
          <mxGeometry x="1020" y="90" width="120" height="60" as="geometry" />
        </mxCell>
        <mxCell id="AeC5mfnTEmSeIsK8OsLa-88" value="" style="edgeStyle=orthogonalEdgeStyle;rounded=0;orthogonalLoop=1;jettySize=auto;html=1;shape=link;" edge="1" parent="WIyWlLk6GJQsqaUBKTNV-1" source="AeC5mfnTEmSeIsK8OsLa-2" target="AeC5mfnTEmSeIsK8OsLa-86">
          <mxGeometry relative="1" as="geometry" />
        </mxCell>
        <mxCell id="AeC5mfnTEmSeIsK8OsLa-2" value="Timer1&lt;br&gt;1sekund" style="rounded=1;whiteSpace=wrap;html=1;" vertex="1" parent="WIyWlLk6GJQsqaUBKTNV-1">
          <mxGeometry x="1020" y="180" width="120" height="60" as="geometry" />
        </mxCell>
        <mxCell id="AeC5mfnTEmSeIsK8OsLa-56" value="" style="edgeStyle=orthogonalEdgeStyle;rounded=0;orthogonalLoop=1;jettySize=auto;html=1;" edge="1" parent="WIyWlLk6GJQsqaUBKTNV-1" source="AeC5mfnTEmSeIsK8OsLa-3" target="AeC5mfnTEmSeIsK8OsLa-6">
          <mxGeometry relative="1" as="geometry" />
        </mxCell>
        <mxCell id="AeC5mfnTEmSeIsK8OsLa-3" value="setup()" style="rounded=1;whiteSpace=wrap;html=1;" vertex="1" parent="WIyWlLk6GJQsqaUBKTNV-1">
          <mxGeometry x="40" y="70" width="120" height="60" as="geometry" />
        </mxCell>
        <mxCell id="AeC5mfnTEmSeIsK8OsLa-55" value="" style="edgeStyle=orthogonalEdgeStyle;rounded=0;orthogonalLoop=1;jettySize=auto;html=1;" edge="1" parent="WIyWlLk6GJQsqaUBKTNV-1" source="AeC5mfnTEmSeIsK8OsLa-4" target="AeC5mfnTEmSeIsK8OsLa-37">
          <mxGeometry relative="1" as="geometry" />
        </mxCell>
        <mxCell id="AeC5mfnTEmSeIsK8OsLa-90" style="edgeStyle=orthogonalEdgeStyle;shape=link;rounded=0;orthogonalLoop=1;jettySize=auto;html=1;exitX=1;exitY=0.5;exitDx=0;exitDy=0;entryX=0;entryY=0.5;entryDx=0;entryDy=0;" edge="1" parent="WIyWlLk6GJQsqaUBKTNV-1" source="AeC5mfnTEmSeIsK8OsLa-4" target="AeC5mfnTEmSeIsK8OsLa-86">
          <mxGeometry relative="1" as="geometry">
            <Array as="points">
              <mxPoint x="840" y="210" />
              <mxPoint x="840" y="210" />
            </Array>
          </mxGeometry>
        </mxCell>
        <mxCell id="AeC5mfnTEmSeIsK8OsLa-4" value="main()" style="rounded=1;whiteSpace=wrap;html=1;" vertex="1" parent="WIyWlLk6GJQsqaUBKTNV-1">
          <mxGeometry x="50" y="190" width="120" height="40" as="geometry" />
        </mxCell>
        <mxCell id="AeC5mfnTEmSeIsK8OsLa-58" value="" style="edgeStyle=orthogonalEdgeStyle;rounded=0;orthogonalLoop=1;jettySize=auto;html=1;" edge="1" parent="WIyWlLk6GJQsqaUBKTNV-1" source="AeC5mfnTEmSeIsK8OsLa-5" target="AeC5mfnTEmSeIsK8OsLa-36">
          <mxGeometry relative="1" as="geometry" />
        </mxCell>
        <mxCell id="AeC5mfnTEmSeIsK8OsLa-5" value="addCustomer()" style="rounded=1;whiteSpace=wrap;html=1;" vertex="1" parent="WIyWlLk6GJQsqaUBKTNV-1">
          <mxGeometry x="360" y="80" width="90" height="40" as="geometry" />
        </mxCell>
        <mxCell id="AeC5mfnTEmSeIsK8OsLa-54" style="edgeStyle=orthogonalEdgeStyle;rounded=0;orthogonalLoop=1;jettySize=auto;html=1;entryX=1;entryY=0.5;entryDx=0;entryDy=0;" edge="1" parent="WIyWlLk6GJQsqaUBKTNV-1" source="AeC5mfnTEmSeIsK8OsLa-6" target="AeC5mfnTEmSeIsK8OsLa-52">
          <mxGeometry relative="1" as="geometry">
            <mxPoint x="250" as="targetPoint" />
            <Array as="points">
              <mxPoint x="240" />
            </Array>
          </mxGeometry>
        </mxCell>
        <mxCell id="AeC5mfnTEmSeIsK8OsLa-57" value="" style="edgeStyle=orthogonalEdgeStyle;rounded=0;orthogonalLoop=1;jettySize=auto;html=1;" edge="1" parent="WIyWlLk6GJQsqaUBKTNV-1" source="AeC5mfnTEmSeIsK8OsLa-6" target="AeC5mfnTEmSeIsK8OsLa-5">
          <mxGeometry relative="1" as="geometry" />
        </mxCell>
        <mxCell id="AeC5mfnTEmSeIsK8OsLa-6" value="populateCustomer()" style="rounded=1;whiteSpace=wrap;html=1;" vertex="1" parent="WIyWlLk6GJQsqaUBKTNV-1">
          <mxGeometry x="190" y="80" width="120" height="40" as="geometry" />
        </mxCell>
        <mxCell id="AeC5mfnTEmSeIsK8OsLa-9" value="messageStruct" style="shape=table;html=1;whiteSpace=wrap;startSize=30;container=1;collapsible=0;childLayout=tableLayout;fixedRows=1;rowLines=0;fontStyle=1;align=center;" vertex="1" parent="WIyWlLk6GJQsqaUBKTNV-1">
          <mxGeometry x="960" y="300" width="180" height="90" as="geometry" />
        </mxCell>
        <mxCell id="AeC5mfnTEmSeIsK8OsLa-10" value="" style="shape=partialRectangle;html=1;whiteSpace=wrap;collapsible=0;dropTarget=0;pointerEvents=0;fillColor=none;top=0;left=0;bottom=1;right=0;points=[[0,0.5],[1,0.5]];portConstraint=eastwest;" vertex="1" parent="AeC5mfnTEmSeIsK8OsLa-9">
          <mxGeometry y="30" width="180" height="30" as="geometry" />
        </mxCell>
        <mxCell id="AeC5mfnTEmSeIsK8OsLa-11" value="char" style="shape=partialRectangle;html=1;whiteSpace=wrap;connectable=0;fillColor=none;top=0;left=0;bottom=0;right=0;overflow=hidden;" vertex="1" parent="AeC5mfnTEmSeIsK8OsLa-10">
          <mxGeometry width="40" height="30" as="geometry" />
        </mxCell>
        <mxCell id="AeC5mfnTEmSeIsK8OsLa-12" value="text" style="shape=partialRectangle;html=1;whiteSpace=wrap;connectable=0;fillColor=none;top=0;left=0;bottom=0;right=0;align=left;spacingLeft=6;overflow=hidden;" vertex="1" parent="AeC5mfnTEmSeIsK8OsLa-10">
          <mxGeometry x="40" width="140" height="30" as="geometry" />
        </mxCell>
        <mxCell id="AeC5mfnTEmSeIsK8OsLa-13" value="" style="shape=partialRectangle;html=1;whiteSpace=wrap;collapsible=0;dropTarget=0;pointerEvents=0;fillColor=none;top=0;left=0;bottom=0;right=0;points=[[0,0.5],[1,0.5]];portConstraint=eastwest;" vertex="1" parent="AeC5mfnTEmSeIsK8OsLa-9">
          <mxGeometry y="60" width="180" height="30" as="geometry" />
        </mxCell>
        <mxCell id="AeC5mfnTEmSeIsK8OsLa-14" value="enum" style="shape=partialRectangle;html=1;whiteSpace=wrap;connectable=0;fillColor=none;top=0;left=0;bottom=0;right=0;overflow=hidden;" vertex="1" parent="AeC5mfnTEmSeIsK8OsLa-13">
          <mxGeometry width="40" height="30" as="geometry" />
        </mxCell>
        <mxCell id="AeC5mfnTEmSeIsK8OsLa-15" value="textAttr" style="shape=partialRectangle;html=1;whiteSpace=wrap;connectable=0;fillColor=none;top=0;left=0;bottom=0;right=0;align=left;spacingLeft=6;overflow=hidden;" vertex="1" parent="AeC5mfnTEmSeIsK8OsLa-13">
          <mxGeometry x="40" width="140" height="30" as="geometry" />
        </mxCell>
        <mxCell id="AeC5mfnTEmSeIsK8OsLa-19" value="customerStruct" style="shape=table;html=1;whiteSpace=wrap;startSize=30;container=1;collapsible=0;childLayout=tableLayout;fixedRows=1;rowLines=1;fontStyle=1;align=center;verticalAlign=middle;" vertex="1" parent="WIyWlLk6GJQsqaUBKTNV-1">
          <mxGeometry x="960" y="410" width="180" height="180" as="geometry" />
        </mxCell>
        <mxCell id="AeC5mfnTEmSeIsK8OsLa-20" value="" style="shape=partialRectangle;html=1;whiteSpace=wrap;collapsible=0;dropTarget=0;pointerEvents=0;fillColor=none;top=0;left=0;bottom=1;right=0;points=[[0,0.5],[1,0.5]];portConstraint=eastwest;" vertex="1" parent="AeC5mfnTEmSeIsK8OsLa-19">
          <mxGeometry y="30" width="180" height="30" as="geometry" />
        </mxCell>
        <mxCell id="AeC5mfnTEmSeIsK8OsLa-21" value="enum" style="shape=partialRectangle;html=1;whiteSpace=wrap;connectable=0;fillColor=none;top=0;left=0;bottom=0;right=0;overflow=hidden;" vertex="1" parent="AeC5mfnTEmSeIsK8OsLa-20">
          <mxGeometry width="90" height="30" as="geometry" />
        </mxCell>
        <mxCell id="AeC5mfnTEmSeIsK8OsLa-22" value="switchMethod" style="shape=partialRectangle;html=1;whiteSpace=wrap;connectable=0;fillColor=none;top=0;left=0;bottom=0;right=0;align=left;spacingLeft=6;overflow=hidden;" vertex="1" parent="AeC5mfnTEmSeIsK8OsLa-20">
          <mxGeometry x="90" width="90" height="30" as="geometry" />
        </mxCell>
        <mxCell id="AeC5mfnTEmSeIsK8OsLa-23" value="" style="shape=partialRectangle;html=1;whiteSpace=wrap;collapsible=0;dropTarget=0;pointerEvents=0;fillColor=none;top=0;left=0;bottom=0;right=0;points=[[0,0.5],[1,0.5]];portConstraint=eastwest;" vertex="1" parent="AeC5mfnTEmSeIsK8OsLa-19">
          <mxGeometry y="60" width="180" height="30" as="geometry" />
        </mxCell>
        <mxCell id="AeC5mfnTEmSeIsK8OsLa-24" value="int" style="shape=partialRectangle;html=1;whiteSpace=wrap;connectable=0;fillColor=none;top=1;left=0;bottom=1;right=0;overflow=hidden;" vertex="1" parent="AeC5mfnTEmSeIsK8OsLa-23">
          <mxGeometry width="90" height="30" as="geometry" />
        </mxCell>
        <mxCell id="AeC5mfnTEmSeIsK8OsLa-25" value="customerCost" style="shape=partialRectangle;html=1;whiteSpace=wrap;connectable=0;fillColor=none;top=1;left=0;bottom=1;right=0;align=left;spacingLeft=6;overflow=hidden;" vertex="1" parent="AeC5mfnTEmSeIsK8OsLa-23">
          <mxGeometry x="90" width="90" height="30" as="geometry" />
        </mxCell>
        <mxCell id="AeC5mfnTEmSeIsK8OsLa-26" value="" style="shape=partialRectangle;html=1;whiteSpace=wrap;collapsible=0;dropTarget=0;pointerEvents=0;fillColor=none;top=0;left=0;bottom=0;right=0;points=[[0,0.5],[1,0.5]];portConstraint=eastwest;" vertex="1" parent="AeC5mfnTEmSeIsK8OsLa-19">
          <mxGeometry y="90" width="180" height="30" as="geometry" />
        </mxCell>
        <mxCell id="AeC5mfnTEmSeIsK8OsLa-27" value="messageStruct" style="shape=partialRectangle;html=1;whiteSpace=wrap;connectable=0;fillColor=none;top=1;left=0;bottom=1;right=0;overflow=hidden;" vertex="1" parent="AeC5mfnTEmSeIsK8OsLa-26">
          <mxGeometry width="90" height="30" as="geometry" />
        </mxCell>
        <mxCell id="AeC5mfnTEmSeIsK8OsLa-28" value="message[]" style="shape=partialRectangle;html=1;whiteSpace=wrap;connectable=0;fillColor=none;top=1;left=0;bottom=1;right=0;align=left;spacingLeft=6;overflow=hidden;" vertex="1" parent="AeC5mfnTEmSeIsK8OsLa-26">
          <mxGeometry x="90" width="90" height="30" as="geometry" />
        </mxCell>
        <mxCell id="AeC5mfnTEmSeIsK8OsLa-33" style="shape=partialRectangle;html=1;whiteSpace=wrap;collapsible=0;dropTarget=0;pointerEvents=0;fillColor=none;top=0;left=0;bottom=0;right=0;points=[[0,0.5],[1,0.5]];portConstraint=eastwest;" vertex="1" parent="AeC5mfnTEmSeIsK8OsLa-19">
          <mxGeometry y="120" width="180" height="30" as="geometry" />
        </mxCell>
        <mxCell id="AeC5mfnTEmSeIsK8OsLa-34" value="int" style="shape=partialRectangle;html=1;whiteSpace=wrap;connectable=0;fillColor=none;top=1;left=0;bottom=1;right=0;overflow=hidden;" vertex="1" parent="AeC5mfnTEmSeIsK8OsLa-33">
          <mxGeometry width="90" height="30" as="geometry" />
        </mxCell>
        <mxCell id="AeC5mfnTEmSeIsK8OsLa-35" value="numberOfMessages" style="shape=partialRectangle;html=1;whiteSpace=wrap;connectable=0;fillColor=none;top=1;left=0;bottom=1;right=0;align=left;spacingLeft=6;overflow=hidden;" vertex="1" parent="AeC5mfnTEmSeIsK8OsLa-33">
          <mxGeometry x="90" width="90" height="30" as="geometry" />
        </mxCell>
        <mxCell id="AeC5mfnTEmSeIsK8OsLa-36" value="customerData PROGMEM" style="shape=cube;whiteSpace=wrap;html=1;boundedLbl=1;backgroundOutline=1;darkOpacity=0.05;darkOpacity2=0.1;strokeColor=#000000;" vertex="1" parent="WIyWlLk6GJQsqaUBKTNV-1">
          <mxGeometry x="520" y="60" width="120" height="80" as="geometry" />
        </mxCell>
        <mxCell id="AeC5mfnTEmSeIsK8OsLa-76" value="" style="edgeStyle=orthogonalEdgeStyle;rounded=0;orthogonalLoop=1;jettySize=auto;html=1;" edge="1" parent="WIyWlLk6GJQsqaUBKTNV-1" source="AeC5mfnTEmSeIsK8OsLa-37" target="AeC5mfnTEmSeIsK8OsLa-38">
          <mxGeometry relative="1" as="geometry" />
        </mxCell>
        <mxCell id="AeC5mfnTEmSeIsK8OsLa-37" value="chooseCustomer" style="rounded=1;whiteSpace=wrap;html=1;strokeColor=#000000;" vertex="1" parent="WIyWlLk6GJQsqaUBKTNV-1">
          <mxGeometry x="50" y="290" width="120" height="60" as="geometry" />
        </mxCell>
        <mxCell id="AeC5mfnTEmSeIsK8OsLa-75" value="" style="edgeStyle=orthogonalEdgeStyle;rounded=0;orthogonalLoop=1;jettySize=auto;html=1;" edge="1" parent="WIyWlLk6GJQsqaUBKTNV-1" source="AeC5mfnTEmSeIsK8OsLa-38" target="AeC5mfnTEmSeIsK8OsLa-39">
          <mxGeometry relative="1" as="geometry" />
        </mxCell>
        <mxCell id="AeC5mfnTEmSeIsK8OsLa-38" value="displayCustomer()" style="rounded=1;whiteSpace=wrap;html=1;strokeColor=#000000;" vertex="1" parent="WIyWlLk6GJQsqaUBKTNV-1">
          <mxGeometry x="200" y="290" width="120" height="60" as="geometry" />
        </mxCell>
        <mxCell id="AeC5mfnTEmSeIsK8OsLa-74" value="" style="edgeStyle=orthogonalEdgeStyle;rounded=0;orthogonalLoop=1;jettySize=auto;html=1;" edge="1" parent="WIyWlLk6GJQsqaUBKTNV-1" source="AeC5mfnTEmSeIsK8OsLa-39" target="AeC5mfnTEmSeIsK8OsLa-44">
          <mxGeometry relative="1" as="geometry" />
        </mxCell>
        <mxCell id="AeC5mfnTEmSeIsK8OsLa-39" value="showText()" style="rounded=1;whiteSpace=wrap;html=1;strokeColor=#000000;" vertex="1" parent="WIyWlLk6GJQsqaUBKTNV-1">
          <mxGeometry x="350" y="290" width="120" height="60" as="geometry" />
        </mxCell>
        <mxCell id="AeC5mfnTEmSeIsK8OsLa-42" value="LCD" style="shape=display;whiteSpace=wrap;html=1;strokeColor=#000000;" vertex="1" parent="WIyWlLk6GJQsqaUBKTNV-1">
          <mxGeometry x="520" y="460" width="70" height="60" as="geometry" />
        </mxCell>
        <mxCell id="AeC5mfnTEmSeIsK8OsLa-77" style="edgeStyle=orthogonalEdgeStyle;rounded=0;orthogonalLoop=1;jettySize=auto;html=1;exitX=0.5;exitY=0;exitDx=0;exitDy=0;entryX=0.5;entryY=0;entryDx=0;entryDy=0;" edge="1" parent="WIyWlLk6GJQsqaUBKTNV-1" target="AeC5mfnTEmSeIsK8OsLa-43">
          <mxGeometry relative="1" as="geometry">
            <mxPoint x="700" y="160" as="sourcePoint" />
          </mxGeometry>
        </mxCell>
        <mxCell id="AeC5mfnTEmSeIsK8OsLa-43" value="addChars()&lt;br&gt;åäö" style="rounded=1;whiteSpace=wrap;html=1;strokeColor=#000000;" vertex="1" parent="WIyWlLk6GJQsqaUBKTNV-1">
          <mxGeometry x="640" y="475" width="120" height="30" as="geometry" />
        </mxCell>
        <mxCell id="AeC5mfnTEmSeIsK8OsLa-44" value="lcdPrint()" style="rounded=1;whiteSpace=wrap;html=1;strokeColor=#000000;" vertex="1" parent="WIyWlLk6GJQsqaUBKTNV-1">
          <mxGeometry x="500" y="290" width="120" height="60" as="geometry" />
        </mxCell>
        <mxCell id="AeC5mfnTEmSeIsK8OsLa-52" value="Customer" style="ellipse;whiteSpace=wrap;html=1;aspect=fixed;strokeColor=#000000;" vertex="1" parent="WIyWlLk6GJQsqaUBKTNV-1">
          <mxGeometry x="60" y="-40" width="80" height="80" as="geometry" />
        </mxCell>
        <mxCell id="AeC5mfnTEmSeIsK8OsLa-62" value="" style="endArrow=classic;html=1;exitX=0.5;exitY=1;exitDx=0;exitDy=0;entryX=0;entryY=0.5;entryDx=0;entryDy=0;" edge="1" parent="WIyWlLk6GJQsqaUBKTNV-1" source="AeC5mfnTEmSeIsK8OsLa-3" target="AeC5mfnTEmSeIsK8OsLa-0">
          <mxGeometry width="50" height="50" relative="1" as="geometry">
            <mxPoint x="510" y="290" as="sourcePoint" />
            <mxPoint x="960" y="30" as="targetPoint" />
            <Array as="points">
              <mxPoint x="100" y="160" />
              <mxPoint x="800" y="160" />
              <mxPoint x="800" y="30" />
            </Array>
          </mxGeometry>
        </mxCell>
        <mxCell id="AeC5mfnTEmSeIsK8OsLa-72" value="" style="group" vertex="1" connectable="0" parent="WIyWlLk6GJQsqaUBKTNV-1">
          <mxGeometry x="1060" y="150" width="40" height="30" as="geometry" />
        </mxCell>
        <mxCell id="AeC5mfnTEmSeIsK8OsLa-70" value="" style="endArrow=none;dashed=1;html=1;dashPattern=1 3;strokeWidth=2;entryX=0.25;entryY=1;entryDx=0;entryDy=0;exitX=0.25;exitY=0;exitDx=0;exitDy=0;" edge="1" parent="AeC5mfnTEmSeIsK8OsLa-72">
          <mxGeometry width="50" height="50" relative="1" as="geometry">
            <mxPoint y="30" as="sourcePoint" />
            <mxPoint as="targetPoint" />
            <Array as="points" />
          </mxGeometry>
        </mxCell>
        <mxCell id="AeC5mfnTEmSeIsK8OsLa-71" value="" style="endArrow=none;dashed=1;html=1;dashPattern=1 3;strokeWidth=2;" edge="1" parent="AeC5mfnTEmSeIsK8OsLa-72">
          <mxGeometry width="50" height="50" relative="1" as="geometry">
            <mxPoint x="40" y="28" as="sourcePoint" />
            <mxPoint x="40" as="targetPoint" />
            <Array as="points" />
          </mxGeometry>
        </mxCell>
        <mxCell id="AeC5mfnTEmSeIsK8OsLa-73" value="" style="group" vertex="1" connectable="0" parent="WIyWlLk6GJQsqaUBKTNV-1">
          <mxGeometry x="1100" y="62" height="28" as="geometry" />
        </mxCell>
        <mxCell id="AeC5mfnTEmSeIsK8OsLa-68" value="" style="endArrow=none;dashed=1;html=1;dashPattern=1 3;strokeWidth=2;entryX=0.25;entryY=1;entryDx=0;entryDy=0;exitX=0.25;exitY=0;exitDx=0;exitDy=0;" edge="1" parent="AeC5mfnTEmSeIsK8OsLa-73" source="AeC5mfnTEmSeIsK8OsLa-1" target="AeC5mfnTEmSeIsK8OsLa-0">
          <mxGeometry width="50" height="50" relative="1" as="geometry">
            <mxPoint x="-140" y="90" as="sourcePoint" />
            <mxPoint x="-530" y="180" as="targetPoint" />
            <Array as="points" />
          </mxGeometry>
        </mxCell>
        <mxCell id="AeC5mfnTEmSeIsK8OsLa-69" value="" style="endArrow=none;dashed=1;html=1;dashPattern=1 3;strokeWidth=2;" edge="1" parent="AeC5mfnTEmSeIsK8OsLa-73">
          <mxGeometry width="50" height="50" relative="1" as="geometry">
            <mxPoint y="28" as="sourcePoint" />
            <mxPoint as="targetPoint" />
            <Array as="points" />
          </mxGeometry>
        </mxCell>
        <mxCell id="AeC5mfnTEmSeIsK8OsLa-79" value="" style="endArrow=classic;html=1;exitX=0.5;exitY=1;exitDx=0;exitDy=0;entryX=0;entryY=0;entryDx=40;entryDy=0;entryPerimeter=0;" edge="1" parent="WIyWlLk6GJQsqaUBKTNV-1" source="AeC5mfnTEmSeIsK8OsLa-44" target="AeC5mfnTEmSeIsK8OsLa-42">
          <mxGeometry relative="1" as="geometry">
            <mxPoint x="355" y="440" as="sourcePoint" />
            <mxPoint x="530" y="420" as="targetPoint" />
          </mxGeometry>
        </mxCell>
        <mxCell id="AeC5mfnTEmSeIsK8OsLa-80" value="" style="shape=message;html=1;outlineConnect=0;" vertex="1" parent="AeC5mfnTEmSeIsK8OsLa-79">
          <mxGeometry width="20" height="14" relative="1" as="geometry">
            <mxPoint x="-10" y="-7" as="offset" />
          </mxGeometry>
        </mxCell>
        <mxCell id="AeC5mfnTEmSeIsK8OsLa-81" value="" style="endArrow=classic;html=1;exitX=0;exitY=0.5;exitDx=0;exitDy=0;" edge="1" parent="WIyWlLk6GJQsqaUBKTNV-1" source="AeC5mfnTEmSeIsK8OsLa-43">
          <mxGeometry relative="1" as="geometry">
            <mxPoint x="630" y="490" as="sourcePoint" />
            <mxPoint x="590" y="490" as="targetPoint" />
          </mxGeometry>
        </mxCell>
        <mxCell id="AeC5mfnTEmSeIsK8OsLa-82" value="" style="shape=message;html=1;outlineConnect=0;" vertex="1" parent="AeC5mfnTEmSeIsK8OsLa-81">
          <mxGeometry width="20" height="14" relative="1" as="geometry">
            <mxPoint x="-10" y="-7" as="offset" />
          </mxGeometry>
        </mxCell>
        <mxCell id="AeC5mfnTEmSeIsK8OsLa-84" value="" style="endArrow=none;dashed=1;html=1;dashPattern=1 3;strokeWidth=2;" edge="1" parent="WIyWlLk6GJQsqaUBKTNV-1">
          <mxGeometry width="50" height="50" relative="1" as="geometry">
            <mxPoint x="550" y="310" as="sourcePoint" />
            <mxPoint x="600" y="260" as="targetPoint" />
          </mxGeometry>
        </mxCell>
        <mxCell id="AeC5mfnTEmSeIsK8OsLa-86" value="newCustomer" style="ellipse;whiteSpace=wrap;html=1;aspect=fixed;strokeColor=#000000;" vertex="1" parent="WIyWlLk6GJQsqaUBKTNV-1">
          <mxGeometry x="900" y="175" width="70" height="70" as="geometry" />
        </mxCell>
        <mxCell id="AeC5mfnTEmSeIsK8OsLa-91" style="edgeStyle=orthogonalEdgeStyle;shape=link;rounded=0;orthogonalLoop=1;jettySize=auto;html=1;exitX=0;exitY=0.5;exitDx=0;exitDy=0;" edge="1" parent="WIyWlLk6GJQsqaUBKTNV-1" source="AeC5mfnTEmSeIsK8OsLa-87">
          <mxGeometry relative="1" as="geometry">
            <mxPoint x="840" y="210" as="targetPoint" />
          </mxGeometry>
        </mxCell>
        <mxCell id="AeC5mfnTEmSeIsK8OsLa-87" value="doEvent" style="ellipse;whiteSpace=wrap;html=1;aspect=fixed;strokeColor=#000000;" vertex="1" parent="WIyWlLk6GJQsqaUBKTNV-1">
          <mxGeometry x="900" y="87.5" width="65" height="65" as="geometry" />
        </mxCell>
      </root>
    </mxGraphModel>
  </diagram>
</mxfile>
